<svg width="335" height="44" viewBox="0 0 335 44" fill="none" xmlns="http://www.w3.org/2000/svg">
<path d="M16.2616 17.5344V21.8855H26.762C26.4832 24.2924 25.6469 26.1439 24.346 27.3474C22.8592 28.8286 20.4432 30.495 16.2616 30.495C9.84989 30.495 4.83202 25.3108 4.83202 18.923C4.83202 12.5353 9.75697 7.35106 16.2616 7.35106C19.6998 7.35106 22.3016 8.7397 24.1601 10.4986L27.2266 7.44364C24.6247 4.94409 21.0936 3 16.2616 3C7.43388 3 0 10.1283 0 18.923C0 27.7177 7.43388 34.8461 16.2616 34.8461C21.0007 34.8461 24.6247 33.2723 27.4124 30.4024C30.2931 27.5326 31.2223 23.4592 31.2223 20.2191C31.2223 19.2008 31.1294 18.275 31.0365 17.5344H16.2616Z" fill="white"/>
<path d="M44.2316 13.9238C38.5633 13.9238 33.8242 18.2749 33.8242 24.1997C33.8242 30.1246 38.4703 34.4756 44.2316 34.4756C49.9929 34.4756 54.639 30.2172 54.639 24.2923C54.639 18.2749 49.9929 13.9238 44.2316 13.9238ZM44.2316 30.4949C41.0722 30.4949 38.3774 27.9028 38.3774 24.2923C38.3774 20.5893 41.0722 18.0897 44.2316 18.0897C47.391 18.0897 50.0858 20.5893 50.0858 24.2923C50.0858 27.9028 47.391 30.4949 44.2316 30.4949Z" fill="white"/>
<path d="M95.0608 16.2382H94.8749C93.8528 15.0347 91.9014 13.9238 89.3924 13.9238C84.1887 13.9238 79.7284 18.3675 79.7284 24.1997C79.7284 29.9394 84.1887 34.4756 89.3924 34.4756C91.9014 34.4756 93.8528 33.3647 94.8749 32.1613H95.0608V33.6425C95.0608 37.5306 92.9235 39.6599 89.5783 39.6599C86.7906 39.6599 85.1179 37.7158 84.3746 35.9569L80.4718 37.6232C81.5868 40.3079 84.6533 43.7332 89.6712 43.7332C94.9678 43.7332 99.5211 40.5856 99.5211 32.9944V14.4793H95.2466V16.2382H95.0608ZM89.857 30.4949C86.6976 30.4949 84.3746 27.8102 84.3746 24.2923C84.3746 20.6819 86.7906 18.0897 89.857 18.0897C92.9235 18.0897 95.3395 20.7744 95.3395 24.3849C95.4325 27.9028 93.0164 30.4949 89.857 30.4949Z" fill="white"/>
<path d="M67.3696 13.9238C61.7012 13.9238 56.9621 18.2749 56.9621 24.1997C56.9621 30.1246 61.6083 34.4756 67.3696 34.4756C73.1308 34.4756 77.777 30.2172 77.777 24.2923C77.777 18.2749 73.1308 13.9238 67.3696 13.9238ZM67.3696 30.4949C64.2102 30.4949 61.5154 27.9028 61.5154 24.2923C61.5154 20.5893 64.2102 18.0897 67.3696 18.0897C70.529 18.0897 73.2237 20.5893 73.2237 24.2923C73.2237 27.9028 70.529 30.4949 67.3696 30.4949Z" fill="white"/>
<path d="M102.959 3.46289H107.42V34.5683H102.959V3.46289Z" fill="white"/>
<path d="M121.172 30.4949C118.849 30.4949 117.269 29.4766 116.154 27.3473L130 21.7002L129.535 20.4967C128.699 18.1823 126.004 13.9238 120.708 13.9238C115.411 13.9238 110.951 18.0897 110.951 24.1997C110.951 29.9394 115.318 34.4756 121.172 34.4756C125.911 34.4756 128.606 31.6058 129.814 29.9394L126.283 27.625C125.075 29.384 123.495 30.4949 121.172 30.4949ZM120.894 17.812C122.752 17.812 124.332 18.7378 124.796 20.0338L115.504 23.922C115.411 19.6635 118.57 17.812 120.894 17.812Z" fill="white"/>
<path d="M140.84 34.3667V6.3667H149.88C153.133 6.3667 155.813 6.94003 157.92 8.0867C160.053 9.23337 161.627 10.86 162.64 12.9667C163.68 15.0467 164.2 17.5267 164.2 20.4067C164.2 23.2334 163.68 25.7 162.64 27.8067C161.627 29.8867 160.053 31.5 157.92 32.6467C155.813 33.7934 153.133 34.3667 149.88 34.3667H140.84ZM145.64 30.2867H149.64C152.067 30.2867 153.973 29.9 155.36 29.1267C156.773 28.3267 157.773 27.1934 158.36 25.7267C158.973 24.2334 159.28 22.46 159.28 20.4067C159.28 18.3267 158.973 16.5534 158.36 15.0867C157.773 13.5934 156.773 12.4467 155.36 11.6467C153.973 10.82 152.067 10.4067 149.64 10.4067H145.64V30.2867ZM178.167 34.8467C176.167 34.8467 174.407 34.42 172.887 33.5667C171.367 32.6867 170.18 31.46 169.327 29.8867C168.474 28.3134 168.047 26.5 168.047 24.4467C168.047 22.3134 168.46 20.4467 169.287 18.8467C170.14 17.2467 171.327 15.9934 172.847 15.0867C174.394 14.18 176.18 13.7267 178.207 13.7267C180.18 13.7267 181.9 14.1667 183.367 15.0467C184.834 15.9267 185.967 17.1134 186.767 18.6067C187.567 20.0734 187.967 21.7267 187.967 23.5667C187.967 23.8334 187.967 24.1267 187.967 24.4467C187.967 24.7667 187.94 25.1 187.887 25.4467H171.487V22.3667H183.127C183.074 20.9 182.58 19.7534 181.647 18.9267C180.714 18.0734 179.554 17.6467 178.167 17.6467C177.18 17.6467 176.274 17.8734 175.447 18.3267C174.62 18.78 173.967 19.46 173.487 20.3667C173.007 21.2467 172.767 22.3667 172.767 23.7267V24.8867C172.767 26.14 172.994 27.22 173.447 28.1267C173.927 29.0334 174.567 29.7267 175.367 30.2067C176.194 30.66 177.114 30.8867 178.127 30.8867C179.247 30.8867 180.167 30.6467 180.887 30.1667C181.634 29.6867 182.18 29.0467 182.527 28.2467H187.407C187.034 29.5 186.42 30.6334 185.567 31.6467C184.714 32.6334 183.66 33.42 182.407 34.0067C181.154 34.5667 179.74 34.8467 178.167 34.8467ZM201.839 34.8467C199.839 34.8467 198.079 34.42 196.559 33.5667C195.039 32.6867 193.852 31.46 192.999 29.8867C192.145 28.3134 191.719 26.5 191.719 24.4467C191.719 22.3134 192.132 20.4467 192.959 18.8467C193.812 17.2467 194.999 15.9934 196.519 15.0867C198.065 14.18 199.852 13.7267 201.879 13.7267C203.852 13.7267 205.572 14.1667 207.039 15.0467C208.505 15.9267 209.639 17.1134 210.439 18.6067C211.239 20.0734 211.639 21.7267 211.639 23.5667C211.639 23.8334 211.639 24.1267 211.639 24.4467C211.639 24.7667 211.612 25.1 211.559 25.4467H195.159V22.3667H206.799C206.745 20.9 206.252 19.7534 205.319 18.9267C204.385 18.0734 203.225 17.6467 201.839 17.6467C200.852 17.6467 199.945 17.8734 199.119 18.3267C198.292 18.78 197.639 19.46 197.159 20.3667C196.679 21.2467 196.439 22.3667 196.439 23.7267V24.8867C196.439 26.14 196.665 27.22 197.119 28.1267C197.599 29.0334 198.239 29.7267 199.039 30.2067C199.865 30.66 200.785 30.8867 201.799 30.8867C202.919 30.8867 203.839 30.6467 204.559 30.1667C205.305 29.6867 205.852 29.0467 206.199 28.2467H211.079C210.705 29.5 210.092 30.6334 209.239 31.6467C208.385 32.6334 207.332 33.42 206.079 34.0067C204.825 34.5667 203.412 34.8467 201.839 34.8467ZM216.071 43.1667V14.2067H220.351L220.871 17.1267C221.297 16.54 221.804 15.9934 222.391 15.4867C223.004 14.9534 223.737 14.5267 224.591 14.2067C225.471 13.8867 226.471 13.7267 227.591 13.7267C229.484 13.7267 231.151 14.1934 232.591 15.1267C234.057 16.06 235.204 17.3267 236.031 18.9267C236.857 20.5 237.271 22.3 237.271 24.3267C237.271 26.3534 236.844 28.1667 235.991 29.7667C235.164 31.34 234.017 32.58 232.551 33.4867C231.111 34.3934 229.457 34.8467 227.591 34.8467C226.071 34.8467 224.737 34.5667 223.591 34.0067C222.471 33.42 221.564 32.5934 220.871 31.5267V43.1667H216.071ZM226.591 30.6867C227.711 30.6867 228.711 30.42 229.591 29.8867C230.471 29.3534 231.151 28.6067 231.631 27.6467C232.137 26.6867 232.391 25.58 232.391 24.3267C232.391 23.0467 232.137 21.9267 231.631 20.9667C231.151 20.0067 230.471 19.26 229.591 18.7267C228.711 18.1934 227.711 17.9267 226.591 17.9267C225.444 17.9267 224.431 18.1934 223.551 18.7267C222.697 19.26 222.017 20.0067 221.511 20.9667C221.031 21.9267 220.791 23.0334 220.791 24.2867C220.791 25.5667 221.031 26.6867 221.511 27.6467C222.017 28.58 222.697 29.3267 223.551 29.8867C224.431 30.42 225.444 30.6867 226.591 30.6867ZM242.09 34.3667V6.3667H247.77L256.73 24.4467L265.61 6.3667H271.33V34.3667H266.53V14.6067L258.61 30.4467H254.85L246.89 14.6467V34.3667H242.09ZM277.052 34.3667V14.2067H281.852V34.3667H277.052ZM279.452 11.0067C278.572 11.0067 277.839 10.74 277.252 10.2067C276.692 9.6467 276.412 8.9667 276.412 8.1667C276.412 7.34003 276.692 6.67336 277.252 6.1667C277.839 5.63336 278.572 5.3667 279.452 5.3667C280.332 5.3667 281.052 5.63336 281.612 6.1667C282.199 6.67336 282.492 7.34003 282.492 8.1667C282.492 8.9667 282.199 9.6467 281.612 10.2067C281.052 10.74 280.332 11.0067 279.452 11.0067ZM287.399 34.3667V14.2067H291.639L291.999 17.5667C292.612 16.3934 293.492 15.46 294.639 14.7667C295.785 14.0734 297.145 13.7267 298.719 13.7267C300.345 13.7267 301.732 14.0734 302.879 14.7667C304.025 15.4334 304.905 16.42 305.519 17.7267C306.159 19.0334 306.479 20.66 306.479 22.6067V34.3667H301.679V23.0467C301.679 21.3667 301.305 20.0734 300.559 19.1667C299.812 18.26 298.705 17.8067 297.239 17.8067C296.279 17.8067 295.412 18.0334 294.639 18.4867C293.892 18.94 293.292 19.6067 292.839 20.4867C292.412 21.34 292.199 22.38 292.199 23.6067V34.3667H287.399ZM320.499 34.8467C318.633 34.8467 316.966 34.3934 315.499 33.4867C314.033 32.58 312.886 31.3267 312.059 29.7267C311.259 28.1267 310.859 26.3134 310.859 24.2867C310.859 22.26 311.273 20.46 312.099 18.8867C312.926 17.2867 314.073 16.0334 315.539 15.1267C317.033 14.1934 318.713 13.7267 320.579 13.7267C322.099 13.7267 323.419 14.02 324.539 14.6067C325.686 15.1667 326.593 15.9667 327.259 17.0067V5.5667H332.059V34.3667H327.739L327.259 31.4467C326.833 32.0334 326.313 32.5934 325.699 33.1267C325.086 33.6334 324.353 34.0467 323.499 34.3667C322.646 34.6867 321.646 34.8467 320.499 34.8467ZM321.499 30.6867C322.646 30.6867 323.659 30.42 324.539 29.8867C325.419 29.3267 326.099 28.5667 326.579 27.6067C327.059 26.6467 327.299 25.54 327.299 24.2867C327.299 23.0334 327.059 21.9267 326.579 20.9667C326.099 20.0067 325.419 19.26 324.539 18.7267C323.659 18.1934 322.646 17.9267 321.499 17.9267C320.406 17.9267 319.419 18.1934 318.539 18.7267C317.659 19.26 316.966 20.0067 316.459 20.9667C315.979 21.9267 315.739 23.0334 315.739 24.2867C315.739 25.54 315.979 26.6467 316.459 27.6067C316.966 28.5667 317.659 29.3267 318.539 29.8867C319.419 30.42 320.406 30.6867 321.499 30.6867Z" fill="white"/>
</svg>
