<svg width="28" height="28" viewBox="0 0 28 28" fill="none" xmlns="http://www.w3.org/2000/svg">
<path fill-rule="evenodd" clip-rule="evenodd" d="M4.66663 8.66667V19.3333C4.66663 20.0406 4.94758 20.7189 5.44767 21.219C5.94777 21.719 6.62605 22 7.33329 22H20.6666C21.3739 22 22.0521 21.719 22.5522 21.219C23.0523 20.7189 23.3333 20.0406 23.3333 19.3333V8.66667C23.3333 7.95942 23.0523 7.28115 22.5522 6.78105C22.0521 6.28095 21.3739 6 20.6666 6H7.33329C6.62605 6 5.94777 6.28095 5.44767 6.78105C4.94758 7.28115 4.66663 7.95942 4.66663 8.66667Z" stroke="#909090" stroke-linecap="round" stroke-linejoin="round"/>
<path d="M7.33325 10L13.9999 14L20.6666 10" stroke="#909090" stroke-linecap="round" stroke-linejoin="round"/>
</svg>
